<mxfile host="app.diagrams.net" agent="Mozilla/5.0 (Windows NT 10.0; Win64; x64; rv:135.0) Gecko/20100101 Firefox/135.0" version="26.0.16">
  <diagram name="Page-1" id="7QL4QP1NcXmB00a-UqtN">
    <mxGraphModel dx="2074" dy="1134" grid="1" gridSize="10" guides="1" tooltips="1" connect="1" arrows="1" fold="1" page="1" pageScale="1" pageWidth="2339" pageHeight="3300" math="0" shadow="0">
      <root>
        <mxCell id="0" />
        <mxCell id="1" parent="0" />
        <mxCell id="3JjK3eb2urT9_Ez95hh0-71" value="" style="rounded=0;whiteSpace=wrap;html=1;fillColor=#A3A3A3;strokeColor=#36393d;" vertex="1" parent="1">
          <mxGeometry x="160" y="160" width="2000" height="750" as="geometry" />
        </mxCell>
        <mxCell id="3JjK3eb2urT9_Ez95hh0-3" value="" style="endArrow=none;html=1;rounded=0;strokeWidth=4;" edge="1" parent="1">
          <mxGeometry width="50" height="50" relative="1" as="geometry">
            <mxPoint x="160" y="160" as="sourcePoint" />
            <mxPoint x="2160" y="160" as="targetPoint" />
          </mxGeometry>
        </mxCell>
        <mxCell id="3JjK3eb2urT9_Ez95hh0-4" value="" style="endArrow=none;html=1;rounded=0;strokeWidth=4;" edge="1" parent="1">
          <mxGeometry width="50" height="50" relative="1" as="geometry">
            <mxPoint x="160" y="800" as="sourcePoint" />
            <mxPoint x="2160" y="800" as="targetPoint" />
          </mxGeometry>
        </mxCell>
        <mxCell id="3JjK3eb2urT9_Ez95hh0-5" value="" style="endArrow=none;dashed=1;html=1;rounded=0;strokeWidth=4;" edge="1" parent="1">
          <mxGeometry width="50" height="50" relative="1" as="geometry">
            <mxPoint x="160" y="480" as="sourcePoint" />
            <mxPoint x="2160" y="480" as="targetPoint" />
          </mxGeometry>
        </mxCell>
        <mxCell id="3JjK3eb2urT9_Ez95hh0-7" value="" style="endArrow=none;html=1;rounded=0;strokeWidth=4;strokeColor=#FFFFFF;" edge="1" parent="1">
          <mxGeometry width="50" height="50" relative="1" as="geometry">
            <mxPoint x="200" y="320" as="sourcePoint" />
            <mxPoint x="320" y="320" as="targetPoint" />
          </mxGeometry>
        </mxCell>
        <mxCell id="3JjK3eb2urT9_Ez95hh0-8" value="" style="endArrow=none;html=1;rounded=0;strokeWidth=4;strokeColor=#FFFFFF;" edge="1" parent="1">
          <mxGeometry width="50" height="50" relative="1" as="geometry">
            <mxPoint x="400" y="320" as="sourcePoint" />
            <mxPoint x="520" y="320" as="targetPoint" />
          </mxGeometry>
        </mxCell>
        <mxCell id="3JjK3eb2urT9_Ez95hh0-9" value="" style="endArrow=none;html=1;rounded=0;strokeWidth=4;strokeColor=#FFFFFF;" edge="1" parent="1">
          <mxGeometry width="50" height="50" relative="1" as="geometry">
            <mxPoint x="600" y="320" as="sourcePoint" />
            <mxPoint x="720" y="320" as="targetPoint" />
          </mxGeometry>
        </mxCell>
        <mxCell id="3JjK3eb2urT9_Ez95hh0-10" value="" style="endArrow=none;html=1;rounded=0;strokeWidth=4;strokeColor=#FFFFFF;" edge="1" parent="1">
          <mxGeometry width="50" height="50" relative="1" as="geometry">
            <mxPoint x="800" y="320" as="sourcePoint" />
            <mxPoint x="920" y="320" as="targetPoint" />
          </mxGeometry>
        </mxCell>
        <mxCell id="3JjK3eb2urT9_Ez95hh0-11" value="" style="endArrow=none;html=1;rounded=0;strokeWidth=4;strokeColor=#FFFFFF;" edge="1" parent="1">
          <mxGeometry width="50" height="50" relative="1" as="geometry">
            <mxPoint x="1000" y="320" as="sourcePoint" />
            <mxPoint x="1120" y="320" as="targetPoint" />
          </mxGeometry>
        </mxCell>
        <mxCell id="3JjK3eb2urT9_Ez95hh0-12" value="" style="endArrow=none;html=1;rounded=0;strokeWidth=4;strokeColor=#FFFFFF;" edge="1" parent="1">
          <mxGeometry width="50" height="50" relative="1" as="geometry">
            <mxPoint x="1200" y="320" as="sourcePoint" />
            <mxPoint x="1320" y="320" as="targetPoint" />
          </mxGeometry>
        </mxCell>
        <mxCell id="3JjK3eb2urT9_Ez95hh0-13" value="" style="endArrow=none;html=1;rounded=0;strokeWidth=4;strokeColor=#FFFFFF;" edge="1" parent="1">
          <mxGeometry width="50" height="50" relative="1" as="geometry">
            <mxPoint x="1400" y="320" as="sourcePoint" />
            <mxPoint x="1520" y="320" as="targetPoint" />
          </mxGeometry>
        </mxCell>
        <mxCell id="3JjK3eb2urT9_Ez95hh0-14" value="" style="endArrow=none;html=1;rounded=0;strokeWidth=4;strokeColor=#FFFFFF;" edge="1" parent="1">
          <mxGeometry width="50" height="50" relative="1" as="geometry">
            <mxPoint x="1600" y="320" as="sourcePoint" />
            <mxPoint x="1720" y="320" as="targetPoint" />
          </mxGeometry>
        </mxCell>
        <mxCell id="3JjK3eb2urT9_Ez95hh0-15" value="" style="endArrow=none;html=1;rounded=0;strokeWidth=4;strokeColor=#FFFFFF;" edge="1" parent="1">
          <mxGeometry width="50" height="50" relative="1" as="geometry">
            <mxPoint x="1800" y="320" as="sourcePoint" />
            <mxPoint x="1920" y="320" as="targetPoint" />
          </mxGeometry>
        </mxCell>
        <mxCell id="3JjK3eb2urT9_Ez95hh0-18" value="" style="endArrow=none;html=1;rounded=0;strokeWidth=4;strokeColor=#FFFFFF;" edge="1" parent="1">
          <mxGeometry width="50" height="50" relative="1" as="geometry">
            <mxPoint x="200" y="640" as="sourcePoint" />
            <mxPoint x="320" y="640" as="targetPoint" />
          </mxGeometry>
        </mxCell>
        <mxCell id="3JjK3eb2urT9_Ez95hh0-19" value="" style="endArrow=none;html=1;rounded=0;strokeWidth=4;strokeColor=#FFFFFF;" edge="1" parent="1">
          <mxGeometry width="50" height="50" relative="1" as="geometry">
            <mxPoint x="400" y="640" as="sourcePoint" />
            <mxPoint x="520" y="640" as="targetPoint" />
          </mxGeometry>
        </mxCell>
        <mxCell id="3JjK3eb2urT9_Ez95hh0-20" value="" style="endArrow=none;html=1;rounded=0;strokeWidth=4;strokeColor=#FFFFFF;" edge="1" parent="1">
          <mxGeometry width="50" height="50" relative="1" as="geometry">
            <mxPoint x="600" y="640" as="sourcePoint" />
            <mxPoint x="720" y="640" as="targetPoint" />
          </mxGeometry>
        </mxCell>
        <mxCell id="3JjK3eb2urT9_Ez95hh0-21" value="" style="endArrow=none;html=1;rounded=0;strokeWidth=4;strokeColor=#FFFFFF;" edge="1" parent="1">
          <mxGeometry width="50" height="50" relative="1" as="geometry">
            <mxPoint x="800" y="640" as="sourcePoint" />
            <mxPoint x="920" y="640" as="targetPoint" />
          </mxGeometry>
        </mxCell>
        <mxCell id="3JjK3eb2urT9_Ez95hh0-22" value="" style="endArrow=none;html=1;rounded=0;strokeWidth=4;strokeColor=#FFFFFF;" edge="1" parent="1">
          <mxGeometry width="50" height="50" relative="1" as="geometry">
            <mxPoint x="1000" y="640" as="sourcePoint" />
            <mxPoint x="1120" y="640" as="targetPoint" />
          </mxGeometry>
        </mxCell>
        <mxCell id="3JjK3eb2urT9_Ez95hh0-23" value="" style="endArrow=none;html=1;rounded=0;strokeWidth=4;strokeColor=#FFFFFF;" edge="1" parent="1">
          <mxGeometry width="50" height="50" relative="1" as="geometry">
            <mxPoint x="1200" y="640" as="sourcePoint" />
            <mxPoint x="1320" y="640" as="targetPoint" />
          </mxGeometry>
        </mxCell>
        <mxCell id="3JjK3eb2urT9_Ez95hh0-24" value="" style="endArrow=none;html=1;rounded=0;strokeWidth=4;strokeColor=#FFFFFF;" edge="1" parent="1">
          <mxGeometry width="50" height="50" relative="1" as="geometry">
            <mxPoint x="1400" y="640" as="sourcePoint" />
            <mxPoint x="1520" y="640" as="targetPoint" />
          </mxGeometry>
        </mxCell>
        <mxCell id="3JjK3eb2urT9_Ez95hh0-25" value="" style="endArrow=none;html=1;rounded=0;strokeWidth=4;strokeColor=#FFFFFF;" edge="1" parent="1">
          <mxGeometry width="50" height="50" relative="1" as="geometry">
            <mxPoint x="1600" y="640" as="sourcePoint" />
            <mxPoint x="1720" y="640" as="targetPoint" />
          </mxGeometry>
        </mxCell>
        <mxCell id="3JjK3eb2urT9_Ez95hh0-26" value="" style="endArrow=none;html=1;rounded=0;strokeWidth=4;strokeColor=#FFFFFF;" edge="1" parent="1">
          <mxGeometry width="50" height="50" relative="1" as="geometry">
            <mxPoint x="1800" y="640" as="sourcePoint" />
            <mxPoint x="1920" y="640" as="targetPoint" />
          </mxGeometry>
        </mxCell>
        <mxCell id="3JjK3eb2urT9_Ez95hh0-27" value="" style="shape=mxgraph.signs.transportation.car_3;html=1;pointerEvents=1;fillColor=#000000;strokeColor=none;verticalLabelPosition=bottom;verticalAlign=top;align=center;flipH=1;" vertex="1" parent="1">
          <mxGeometry x="660" y="380" width="130" height="48" as="geometry" />
        </mxCell>
        <mxCell id="3JjK3eb2urT9_Ez95hh0-28" value="" style="shape=mxgraph.signs.transportation.car_3;html=1;pointerEvents=1;fillColor=#000000;strokeColor=none;verticalLabelPosition=bottom;verticalAlign=top;align=center;flipH=1;" vertex="1" parent="1">
          <mxGeometry x="1140" y="220" width="130" height="48" as="geometry" />
        </mxCell>
        <mxCell id="3JjK3eb2urT9_Ez95hh0-29" value="" style="shape=mxgraph.signs.transportation.car_3;html=1;pointerEvents=1;fillColor=#000000;strokeColor=none;verticalLabelPosition=bottom;verticalAlign=top;align=center;flipH=1;" vertex="1" parent="1">
          <mxGeometry x="1310" y="380" width="130" height="48" as="geometry" />
        </mxCell>
        <mxCell id="3JjK3eb2urT9_Ez95hh0-30" value="" style="shape=mxgraph.signs.transportation.car_3;html=1;pointerEvents=1;fillColor=#000000;strokeColor=none;verticalLabelPosition=bottom;verticalAlign=top;align=center;flipH=1;" vertex="1" parent="1">
          <mxGeometry x="170" y="380" width="130" height="48" as="geometry" />
        </mxCell>
        <mxCell id="3JjK3eb2urT9_Ez95hh0-31" value="" style="shape=mxgraph.signs.transportation.car_3;html=1;pointerEvents=1;fillColor=#000000;strokeColor=none;verticalLabelPosition=bottom;verticalAlign=top;align=center;flipH=1;" vertex="1" parent="1">
          <mxGeometry x="410" y="220" width="130" height="48" as="geometry" />
        </mxCell>
        <mxCell id="3JjK3eb2urT9_Ez95hh0-32" value="" style="shape=mxgraph.signs.transportation.car_3;html=1;pointerEvents=1;fillColor=#000000;strokeColor=none;verticalLabelPosition=bottom;verticalAlign=top;align=center;flipH=0;" vertex="1" parent="1">
          <mxGeometry x="1870" y="540" width="130" height="48" as="geometry" />
        </mxCell>
        <mxCell id="3JjK3eb2urT9_Ez95hh0-34" value="" style="shape=mxgraph.signs.transportation.car_3;html=1;pointerEvents=1;fillColor=#000000;strokeColor=none;verticalLabelPosition=bottom;verticalAlign=top;align=center;flipH=0;" vertex="1" parent="1">
          <mxGeometry x="1130" y="540" width="130" height="48" as="geometry" />
        </mxCell>
        <mxCell id="3JjK3eb2urT9_Ez95hh0-35" value="" style="shape=mxgraph.signs.transportation.car_3;html=1;pointerEvents=1;fillColor=#000000;strokeColor=none;verticalLabelPosition=bottom;verticalAlign=top;align=center;flipH=0;" vertex="1" parent="1">
          <mxGeometry x="1260" y="700" width="130" height="48" as="geometry" />
        </mxCell>
        <mxCell id="3JjK3eb2urT9_Ez95hh0-36" value="" style="shape=mxgraph.signs.transportation.car_3;html=1;pointerEvents=1;fillColor=#000000;strokeColor=none;verticalLabelPosition=bottom;verticalAlign=top;align=center;flipH=0;" vertex="1" parent="1">
          <mxGeometry x="710" y="700" width="130" height="48" as="geometry" />
        </mxCell>
        <mxCell id="3JjK3eb2urT9_Ez95hh0-37" value="" style="shape=mxgraph.signs.transportation.car_3;html=1;pointerEvents=1;fillColor=#000000;strokeColor=none;verticalLabelPosition=bottom;verticalAlign=top;align=center;flipH=0;" vertex="1" parent="1">
          <mxGeometry x="300" y="540" width="130" height="48" as="geometry" />
        </mxCell>
        <mxCell id="3JjK3eb2urT9_Ez95hh0-39" value="" style="endArrow=none;html=1;rounded=0;strokeWidth=4;strokeColor=#FFFFFF;" edge="1" parent="1">
          <mxGeometry width="50" height="50" relative="1" as="geometry">
            <mxPoint x="2000" y="640" as="sourcePoint" />
            <mxPoint x="2120" y="640" as="targetPoint" />
          </mxGeometry>
        </mxCell>
        <mxCell id="3JjK3eb2urT9_Ez95hh0-40" value="" style="shape=mxgraph.signs.transportation.car_3;html=1;pointerEvents=1;fillColor=#000000;strokeColor=none;verticalLabelPosition=bottom;verticalAlign=top;align=center;flipH=1;" vertex="1" parent="1">
          <mxGeometry x="1750" y="380" width="130" height="48" as="geometry" />
        </mxCell>
        <mxCell id="3JjK3eb2urT9_Ez95hh0-41" value="" style="shape=mxgraph.signs.transportation.car_3;html=1;pointerEvents=1;fillColor=#000000;strokeColor=none;verticalLabelPosition=bottom;verticalAlign=top;align=center;flipH=1;" vertex="1" parent="1">
          <mxGeometry x="2010" y="220" width="130" height="48" as="geometry" />
        </mxCell>
        <mxCell id="3JjK3eb2urT9_Ez95hh0-42" value="" style="endArrow=none;html=1;rounded=0;strokeWidth=4;strokeColor=#FFFFFF;" edge="1" parent="1">
          <mxGeometry width="50" height="50" relative="1" as="geometry">
            <mxPoint x="2000" y="320" as="sourcePoint" />
            <mxPoint x="2120" y="320" as="targetPoint" />
            <Array as="points">
              <mxPoint x="2110" y="320" />
            </Array>
          </mxGeometry>
        </mxCell>
        <mxCell id="3JjK3eb2urT9_Ez95hh0-43" value="&lt;font style=&quot;font-size: 20px;&quot;&gt;SV&lt;/font&gt;" style="text;html=1;align=center;verticalAlign=middle;resizable=0;points=[];autosize=1;strokeColor=none;fillColor=none;" vertex="1" parent="1">
          <mxGeometry x="700" y="428" width="50" height="40" as="geometry" />
        </mxCell>
        <mxCell id="3JjK3eb2urT9_Ez95hh0-45" value="&lt;font style=&quot;font-size: 20px;&quot;&gt;RV&lt;/font&gt;" style="text;html=1;align=center;verticalAlign=middle;resizable=0;points=[];autosize=1;strokeColor=none;fillColor=none;" vertex="1" parent="1">
          <mxGeometry x="1180" y="268" width="50" height="40" as="geometry" />
        </mxCell>
        <mxCell id="3JjK3eb2urT9_Ez95hh0-46" value="&lt;font style=&quot;font-size: 20px;&quot;&gt;TV&lt;/font&gt;" style="text;html=1;align=center;verticalAlign=middle;resizable=0;points=[];autosize=1;strokeColor=none;fillColor=none;" vertex="1" parent="1">
          <mxGeometry x="1790" y="428" width="50" height="40" as="geometry" />
        </mxCell>
        <mxCell id="3JjK3eb2urT9_Ez95hh0-47" value="" style="endArrow=classic;html=1;rounded=0;exitX=0;exitY=0.5;exitDx=0;exitDy=0;exitPerimeter=0;entryX=1;entryY=0.5;entryDx=0;entryDy=0;entryPerimeter=0;strokeWidth=5;fillColor=#dae8fc;strokeColor=#6c8ebf;" edge="1" parent="1" source="3JjK3eb2urT9_Ez95hh0-28" target="3JjK3eb2urT9_Ez95hh0-40">
          <mxGeometry width="50" height="50" relative="1" as="geometry">
            <mxPoint x="1370" y="290" as="sourcePoint" />
            <mxPoint x="1420" y="240" as="targetPoint" />
          </mxGeometry>
        </mxCell>
        <mxCell id="3JjK3eb2urT9_Ez95hh0-49" value="" style="endArrow=classic;html=1;rounded=0;exitX=-0.015;exitY=0.295;exitDx=0;exitDy=0;exitPerimeter=0;entryX=1.012;entryY=0.893;entryDx=0;entryDy=0;entryPerimeter=0;strokeWidth=5;fillColor=#dae8fc;strokeColor=#6c8ebf;" edge="1" parent="1" source="3JjK3eb2urT9_Ez95hh0-27" target="3JjK3eb2urT9_Ez95hh0-28">
          <mxGeometry width="50" height="50" relative="1" as="geometry">
            <mxPoint x="1080" y="690" as="sourcePoint" />
            <mxPoint x="1130" y="640" as="targetPoint" />
          </mxGeometry>
        </mxCell>
        <mxCell id="3JjK3eb2urT9_Ez95hh0-50" value="" style="endArrow=classic;html=1;rounded=0;exitX=0;exitY=0.5;exitDx=0;exitDy=0;exitPerimeter=0;entryX=1;entryY=0.5;entryDx=0;entryDy=0;entryPerimeter=0;fillColor=#f8cecc;strokeColor=#b85450;strokeWidth=5;" edge="1" parent="1" source="3JjK3eb2urT9_Ez95hh0-30" target="3JjK3eb2urT9_Ez95hh0-28">
          <mxGeometry width="50" height="50" relative="1" as="geometry">
            <mxPoint x="370" y="450" as="sourcePoint" />
            <mxPoint x="720" y="290" as="targetPoint" />
          </mxGeometry>
        </mxCell>
        <mxCell id="3JjK3eb2urT9_Ez95hh0-52" value="" style="endArrow=classic;html=1;rounded=0;exitX=0;exitY=0.5;exitDx=0;exitDy=0;exitPerimeter=0;entryX=0.014;entryY=0.713;entryDx=0;entryDy=0;entryPerimeter=0;fillColor=#f8cecc;strokeColor=#b85450;strokeWidth=5;" edge="1" parent="1" source="3JjK3eb2urT9_Ez95hh0-32" target="3JjK3eb2urT9_Ez95hh0-28">
          <mxGeometry width="50" height="50" relative="1" as="geometry">
            <mxPoint x="300" y="414" as="sourcePoint" />
            <mxPoint x="1150" y="254" as="targetPoint" />
          </mxGeometry>
        </mxCell>
        <mxCell id="3JjK3eb2urT9_Ez95hh0-55" value="" style="endArrow=classic;html=1;rounded=0;entryX=0.845;entryY=1;entryDx=0;entryDy=0;entryPerimeter=0;strokeWidth=5;fillColor=#d5e8d4;strokeColor=light-dark(#51c859, #446e2c);" edge="1" parent="1" target="3JjK3eb2urT9_Ez95hh0-28">
          <mxGeometry width="50" height="50" relative="1" as="geometry">
            <mxPoint x="791" y="410" as="sourcePoint" />
            <mxPoint x="1148" y="273" as="targetPoint" />
          </mxGeometry>
        </mxCell>
        <mxCell id="3JjK3eb2urT9_Ez95hh0-61" value="&lt;font style=&quot;font-size: 20px;&quot;&gt;Radar Sensing&lt;/font&gt;" style="text;html=1;align=center;verticalAlign=middle;resizable=0;points=[];autosize=1;strokeColor=none;fillColor=none;" vertex="1" parent="1">
          <mxGeometry x="850" y="440" width="160" height="40" as="geometry" />
        </mxCell>
        <mxCell id="3JjK3eb2urT9_Ez95hh0-62" value="&lt;font style=&quot;font-size: 20px;&quot;&gt;Comms Signal&lt;/font&gt;" style="text;html=1;align=center;verticalAlign=middle;resizable=0;points=[];autosize=1;strokeColor=none;fillColor=none;" vertex="1" parent="1">
          <mxGeometry x="750" y="320" width="150" height="40" as="geometry" />
        </mxCell>
        <mxCell id="3JjK3eb2urT9_Ez95hh0-63" value="&lt;font style=&quot;font-size: 20px;&quot;&gt;Comms Interference&lt;/font&gt;" style="text;html=1;align=center;verticalAlign=middle;resizable=0;points=[];autosize=1;strokeColor=none;fillColor=none;" vertex="1" parent="1">
          <mxGeometry x="840" y="228" width="200" height="40" as="geometry" />
        </mxCell>
        <mxCell id="3JjK3eb2urT9_Ez95hh0-68" value="" style="endArrow=classic;html=1;rounded=0;entryX=0.1;entryY=0.2;entryDx=0;entryDy=0;entryPerimeter=0;strokeWidth=5;fillColor=#d5e8d4;strokeColor=light-dark(#51c859, #446e2c);exitX=-0.005;exitY=0.664;exitDx=0;exitDy=0;exitPerimeter=0;" edge="1" parent="1" source="3JjK3eb2urT9_Ez95hh0-27">
          <mxGeometry width="50" height="50" relative="1" as="geometry">
            <mxPoint x="801" y="420" as="sourcePoint" />
            <mxPoint x="1223" y="826" as="targetPoint" />
          </mxGeometry>
        </mxCell>
        <mxCell id="3JjK3eb2urT9_Ez95hh0-72" value="" style="shape=mxgraph.signs.people.walking;html=1;pointerEvents=1;fillColor=#000000;strokeColor=none;verticalLabelPosition=bottom;verticalAlign=top;align=center;" vertex="1" parent="1">
          <mxGeometry x="1220" y="810" width="50" height="80" as="geometry" />
        </mxCell>
      </root>
    </mxGraphModel>
  </diagram>
</mxfile>
